<svg viewBox="0 0 560 200" xmlns="http://www.w3.org/2000/svg" font-family="IBM Plex Mono, monospace" font-size="11">
  <rect width="560" height="200" fill="#0a0e17" rx="8"/>
  <!-- grade -->
  <line x1="60" y1="40"  x2="520" y2="40"  stroke="#1e2d40" stroke-width="1"/>
  <line x1="60" y1="100" x2="520" y2="100" stroke="#1e2d40" stroke-width="1" stroke-dasharray="4,3"/>
  <line x1="60" y1="160" x2="520" y2="160" stroke="#1e2d40" stroke-width="1"/>
  <!-- eixos -->
  <line x1="60" y1="20" x2="60" y2="175" stroke="#64748b" stroke-width="1.5"/>
  <line x1="55" y1="170" x2="525" y2="170" stroke="#64748b" stroke-width="1.5"/>
  <polygon points="525,170 518,166 518,174" fill="#64748b"/>
  <polygon points="60,20 56,27 64,27" fill="#64748b"/>
  <text x="530" y="174" fill="#64748b" font-size="12" font-style="italic">t</text>
  <text x="52"  y="17"  fill="#64748b" font-size="12" font-style="italic">x</text>
  <!-- curva de referência (tracejada) -->
  <path d="M60,100 C90,100 100,40 130,40 C160,40 170,160 200,160 C230,160 240,40 270,40 C300,40 310,160 340,160 C370,160 380,40 410,40 C440,40 450,160 480,160 C500,160 510,120 520,100"
        fill="none" stroke="#1e2d40" stroke-width="1.5" stroke-dasharray="5,3"/>
  <!-- amostras — barras verticais -->
  <!-- período TA indicado -->
  <g stroke="#00c2ff" stroke-width="2">
    <line x1="80"  y1="170" x2="80"  y2="97"/>
    <line x1="110" y1="170" x2="110" y2="57"/>
    <line x1="140" y1="170" x2="140" y2="41"/>
    <line x1="170" y1="170" x2="170" y2="68"/>
    <line x1="200" y1="170" x2="200" y2="160"/>
    <line x1="230" y1="170" x2="230" y2="148"/>
    <line x1="260" y1="170" x2="260" y2="63"/>
    <line x1="290" y1="170" x2="290" y2="41"/>
    <line x1="320" y1="170" x2="320" y2="63"/>
    <line x1="350" y1="170" x2="350" y2="148"/>
    <line x1="380" y1="170" x2="380" y2="160"/>
    <line x1="410" y1="170" x2="410" y2="68"/>
    <line x1="440" y1="170" x2="440" y2="41"/>
    <line x1="470" y1="170" x2="470" y2="57"/>
    <line x1="500" y1="170" x2="500" y2="97"/>
  </g>
  <!-- pontos nas amostras -->
  <g fill="#00c2ff">
    <circle cx="80"  cy="97"  r="3.5"/>
    <circle cx="110" cy="57"  r="3.5"/>
    <circle cx="140" cy="41"  r="3.5"/>
    <circle cx="170" cy="68"  r="3.5"/>
    <circle cx="200" cy="160" r="3.5"/>
    <circle cx="230" cy="148" r="3.5"/>
    <circle cx="260" cy="63"  r="3.5"/>
    <circle cx="290" cy="41"  r="3.5"/>
    <circle cx="320" cy="63"  r="3.5"/>
    <circle cx="350" cy="148" r="3.5"/>
    <circle cx="380" cy="160" r="3.5"/>
    <circle cx="410" cy="68"  r="3.5"/>
    <circle cx="440" cy="41"  r="3.5"/>
    <circle cx="470" cy="57"  r="3.5"/>
    <circle cx="500" cy="97"  r="3.5"/>
  </g>
  <!-- período TA -->
  <line x1="80" y1="183" x2="110" y2="183" stroke="#7c3aed" stroke-width="1.2" marker-end="url(#arr)" marker-start="url(#arr)"/>
  <text x="82" y="196" fill="#7c3aed" font-size="10">T_A</text>
  <!-- labels -->
  <text x="30" y="44"  fill="#64748b" font-size="10">x₁</text>
  <text x="30" y="104" fill="#64748b" font-size="10">0</text>
  <text x="30" y="164" fill="#64748b" font-size="10">x₀</text>
  <text x="350" y="35" fill="#00c2ff" font-size="11">x(n)</text>
  <text x="280" y="195" fill="#64748b" font-size="10" text-anchor="middle">Sinal amostrado — discreto no tempo, contínuo em amplitude</text>
</svg>
