<svg viewBox="0 0 580 210" xmlns="http://www.w3.org/2000/svg" font-family="IBM Plex Mono, monospace" font-size="11">
  <rect width="580" height="210" fill="#0a0e17" rx="8"/>

  <!-- Etapa 0: Sinal analógico -->
  <rect x="10" y="55" width="90" height="75" rx="6" fill="#111827" stroke="#1e2d40" stroke-width="1.5"/>
  <path d="M18,97 C24,97 26,72 32,72 C38,72 40,118 46,118 C52,118 54,72 60,72 C66,72 68,118 74,118 C80,118 82,85 90,85"
        fill="none" stroke="#64748b" stroke-width="1.5"/>
  <text x="55" y="145" fill="#64748b" font-size="9" text-anchor="middle">Sinal analógico</text>
  <text x="55" y="157" fill="#64748b" font-size="9" text-anchor="middle">x(t)</text>

  <!-- seta -->
  <line x1="100" y1="92" x2="118" y2="92" stroke="#64748b" stroke-width="1.2"/>
  <polygon points="118,92 113,89 113,95" fill="#64748b"/>

  <!-- Etapa 1: Amostragem -->
  <rect x="120" y="40" width="105" height="105" rx="6" fill="#111827" stroke="#00c2ff" stroke-width="1.5"/>
  <text x="172" y="58" fill="#00c2ff" font-size="10" text-anchor="middle" font-weight="600">Amostragem</text>
  <g stroke="#00c2ff" stroke-width="1.5">
    <line x1="132" y1="112" x2="132" y2="97"/>
    <line x1="143" y1="112" x2="143" y2="75"/>
    <line x1="154" y1="112" x2="154" y2="69"/>
    <line x1="165" y1="112" x2="165" y2="79"/>
    <line x1="176" y1="112" x2="176" y2="112"/>
    <line x1="187" y1="112" x2="187" y2="106"/>
    <line x1="198" y1="112" x2="198" y2="71"/>
    <line x1="209" y1="112" x2="209" y2="68"/>
    <line x1="218" y1="112" x2="218" y2="78"/>
  </g>
  <g fill="#00c2ff">
    <circle cx="132" cy="97" r="2.5"/><circle cx="143" cy="75" r="2.5"/>
    <circle cx="154" cy="69" r="2.5"/><circle cx="165" cy="79" r="2.5"/>
    <circle cx="176" cy="112" r="2.5"/><circle cx="187" cy="106" r="2.5"/>
    <circle cx="198" cy="71" r="2.5"/><circle cx="209" cy="68" r="2.5"/>
    <circle cx="218" cy="78" r="2.5"/>
  </g>
  <text x="172" y="128" fill="#64748b" font-size="8" text-anchor="middle">Discreto no tempo</text>
  <text x="172" y="140" fill="#64748b" font-size="8" text-anchor="middle">T_A = 1/f_A</text>

  <!-- seta -->
  <line x1="225" y1="92" x2="243" y2="92" stroke="#64748b" stroke-width="1.2"/>
  <polygon points="243,92 238,89 238,95" fill="#64748b"/>

  <!-- Etapa 2: Quantização -->
  <rect x="245" y="40" width="105" height="105" rx="6" fill="#111827" stroke="#00c2ff" stroke-width="1.5"/>
  <text x="297" y="58" fill="#00c2ff" font-size="10" text-anchor="middle" font-weight="600">Quantização</text>
  <polyline points="255,112 265,112 265,95 275,95 275,69 285,69 285,79 295,79 295,112 305,112 305,106 315,106 315,69 325,69 325,79 340,79"
    fill="none" stroke="#00c2ff" stroke-width="1.5" stroke-linecap="square"/>
  <text x="297" y="128" fill="#64748b" font-size="8" text-anchor="middle">Discreto em amplitude</text>
  <text x="297" y="140" fill="#64748b" font-size="8" text-anchor="middle">L níveis, degrau Δ</text>

  <!-- seta -->
  <line x1="350" y1="92" x2="368" y2="92" stroke="#64748b" stroke-width="1.2"/>
  <polygon points="368,92 363,89 363,95" fill="#64748b"/>

  <!-- Etapa 3: Codificação -->
  <rect x="370" y="40" width="115" height="105" rx="6" fill="#111827" stroke="#7c3aed" stroke-width="1.5"/>
  <text x="427" y="58" fill="#7c3aed" font-size="10" text-anchor="middle" font-weight="600">Codificação</text>

  <!-- palavras binárias centralizadas e espaçadas -->
  <text x="427" y="80"  fill="#7c3aed" font-size="11" text-anchor="middle" font-family="IBM Plex Mono">101</text>
  <text x="427" y="95"  fill="#7c3aed" font-size="11" text-anchor="middle" font-family="IBM Plex Mono">011</text>
  <text x="427" y="110" fill="#7c3aed" font-size="11" text-anchor="middle" font-family="IBM Plex Mono">110</text>

  <text x="427" y="128" fill="#64748b" font-size="8" text-anchor="middle">Palavras binárias</text>
  <text x="427" y="140" fill="#64748b" font-size="8" text-anchor="middle">ex: BCD</text>

  <!-- seta final -->
  <line x1="485" y1="92" x2="503" y2="92" stroke="#64748b" stroke-width="1.2"/>
  <polygon points="503,92 498,89 498,95" fill="#64748b"/>

  <!-- Resultado: sinal digital -->
  <rect x="505" y="55" width="65" height="75" rx="6" fill="#111827" stroke="#1e2d40" stroke-width="1.5"/>
  <polyline points="512,100 512,75 519,75 519,100 526,100 526,75 533,75 533,100 540,100 540,75 547,75 547,100 558,100"
    fill="none" stroke="#00c2ff" stroke-width="1.6" stroke-linecap="square"/>
  <text x="537" y="145" fill="#64748b" font-size="9" text-anchor="middle">Sinal digital</text>

  <!-- título -->
  <text x="290" y="198" fill="#64748b" font-size="10" text-anchor="middle">Etapas da conversão analógico-digital (A/D)</text>
</svg>
