<svg viewBox="0 0 580 200" xmlns="http://www.w3.org/2000/svg" font-family="IBM Plex Mono, monospace" font-size="11">
  <rect width="580" height="200" fill="#0a0e17" rx="8"/>

  <!-- Etapa 0: Sinal analógico -->
  <rect x="10" y="60" width="90" height="70" rx="6" fill="#111827" stroke="#1e2d40" stroke-width="1.5"/>
  <!-- mini sinal analógico -->
  <path d="M18,102 C24,102 26,75 32,75 C38,75 40,125 46,125 C52,125 54,75 60,75 C66,75 68,125 74,125 C80,125 82,90 90,90"
        fill="none" stroke="#64748b" stroke-width="1.5"/>
  <text x="55" y="145" fill="#64748b" font-size="9" text-anchor="middle">Sinal analógico</text>
  <text x="55" y="156" fill="#64748b" font-size="9" text-anchor="middle">x(t)</text>

  <!-- seta -->
  <line x1="100" y1="95" x2="118" y2="95" stroke="#64748b" stroke-width="1.2"/>
  <polygon points="118,95 113,92 113,98" fill="#64748b"/>

  <!-- Etapa 1: Amostragem -->
  <rect x="120" y="45" width="105" height="95" rx="6" fill="#111827" stroke="#00c2ff" stroke-width="1.5"/>
  <text x="172" y="63" fill="#00c2ff" font-size="10" text-anchor="middle" font-weight="600">Amostragem</text>
  <!-- mini sinal amostrado -->
  <g stroke="#00c2ff" stroke-width="1.5">
    <line x1="132" y1="117" x2="132" y2="102"/>
    <line x1="143" y1="117" x2="143" y2="80"/>
    <line x1="154" y1="117" x2="154" y2="74"/>
    <line x1="165" y1="117" x2="165" y2="84"/>
    <line x1="176" y1="117" x2="176" y2="117"/>
    <line x1="187" y1="117" x2="187" y2="111"/>
    <line x1="198" y1="117" x2="198" y2="76"/>
    <line x1="209" y1="117" x2="209" y2="73"/>
    <line x1="218" y1="117" x2="218" y2="83"/>
  </g>
  <g fill="#00c2ff">
    <circle cx="132" cy="102" r="2.5"/><circle cx="143" cy="80" r="2.5"/>
    <circle cx="154" cy="74" r="2.5"/><circle cx="165" cy="84" r="2.5"/>
    <circle cx="176" cy="117" r="2.5"/><circle cx="187" cy="111" r="2.5"/>
    <circle cx="198" cy="76" r="2.5"/><circle cx="209" cy="73" r="2.5"/>
    <circle cx="218" cy="83" r="2.5"/>
  </g>
  <text x="172" y="131" fill="#64748b" font-size="8" text-anchor="middle">Discreto no tempo</text>
  <text x="172" y="142" fill="#64748b" font-size="8" text-anchor="middle">T_A = 1/f_A</text>

  <!-- seta -->
  <line x1="225" y1="95" x2="243" y2="95" stroke="#64748b" stroke-width="1.2"/>
  <polygon points="243,95 238,92 238,98" fill="#64748b"/>

  <!-- Etapa 2: Quantização -->
  <rect x="245" y="45" width="105" height="95" rx="6" fill="#111827" stroke="#00c2ff" stroke-width="1.5"/>
  <text x="297" y="63" fill="#00c2ff" font-size="10" text-anchor="middle" font-weight="600">Quantização</text>
  <!-- mini sinal quantizado (escada) -->
  <polyline points="255,117 265,117 265,100 275,100 275,74 285,74 285,84 295,84 295,117 305,117 305,111 315,111 315,74 325,74 325,84 340,84"
    fill="none" stroke="#00c2ff" stroke-width="1.5" stroke-linecap="square"/>
  <text x="297" y="131" fill="#64748b" font-size="8" text-anchor="middle">Discreto em amplitude</text>
  <text x="297" y="142" fill="#64748b" font-size="8" text-anchor="middle">L níveis, degrau Δ</text>

  <!-- seta -->
  <line x1="350" y1="95" x2="368" y2="95" stroke="#64748b" stroke-width="1.2"/>
  <polygon points="368,95 363,92 363,98" fill="#64748b"/>

  <!-- Etapa 3: Codificação -->
  <rect x="370" y="45" width="105" height="95" rx="6" fill="#111827" stroke="#7c3aed" stroke-width="1.5"/>
  <text x="422" y="63" fill="#7c3aed" font-size="10" text-anchor="middle" font-weight="600">Codificação</text>
  <!-- mini palavras binárias -->
  <text x="380" y="82" fill="#7c3aed" font-size="9" font-family="IBM Plex Mono">101</text>
  <text x="380" y="95" fill="#7c3aed" font-size="9" font-family="IBM Plex Mono">011</text>
  <text x="380" y="108" fill="#7c3aed" font-size="9" font-family="IBM Plex Mono">110</text>
  <text x="380" y="121" fill="#7c3aed" font-size="9" font-family="IBM Plex Mono">001</text>
  <text x="422" y="131" fill="#64748b" font-size="8" text-anchor="middle">Palavras binárias</text>
  <text x="422" y="142" fill="#64748b" font-size="8" text-anchor="middle">ex: BCD</text>

  <!-- seta final -->
  <line x1="475" y1="95" x2="493" y2="95" stroke="#64748b" stroke-width="1.2"/>
  <polygon points="493,95 488,92 488,98" fill="#64748b"/>

  <!-- Resultado: sinal digital -->
  <rect x="495" y="60" width="75" height="70" rx="6" fill="#111827" stroke="#1e2d40" stroke-width="1.5"/>
  <polyline points="500,103 500,78 510,78 510,103 520,103 520,78 530,78 530,103 540,103 540,78 550,78 550,103 562,103"
    fill="none" stroke="#00c2ff" stroke-width="1.8" stroke-linecap="square"/>
  <text x="532" y="145" fill="#64748b" font-size="9" text-anchor="middle">Sinal digital</text>

  <!-- título -->
  <text x="290" y="190" fill="#64748b" font-size="10" text-anchor="middle">Etapas da conversão analógico-digital (A/D)</text>
</svg>
