<svg viewBox="0 0 480 160" xmlns="http://www.w3.org/2000/svg" font-family="IBM Plex Mono, monospace" font-size="12">
  <rect width="480" height="160" fill="#0a0e17" rx="8"/>

  <!-- SÍMBOLO PORTA NOR -->
  <line x1="40" y1="60" x2="100" y2="60" stroke="#7c3aed" stroke-width="1.8"/>
  <line x1="40" y1="100" x2="100" y2="100" stroke="#7c3aed" stroke-width="1.8"/>
  <text x="28" y="64" fill="#e2e8f0" font-size="13" font-style="italic">A</text>
  <text x="28" y="104" fill="#e2e8f0" font-size="13" font-style="italic">B</text>
  <!-- corpo OR correto -->
  <path d="M100,45 Q150,45 153,80 Q150,115 100,115 Q118,80 100,45 Z" fill="#0a0e17" stroke="#7c3aed" stroke-width="2"/>
  <!-- bolinha NOR -->
  <circle cx="158" cy="80" r="5" fill="none" stroke="#7c3aed" stroke-width="2"/>
  <!-- saída -->
  <line x1="163" y1="80" x2="220" y2="80" stroke="#7c3aed" stroke-width="1.8"/>
  <text x="225" y="84" fill="#e2e8f0" font-size="13" font-style="italic">S</text>
  <text x="130" y="145" fill="#64748b" font-size="11" text-anchor="middle">S = A + B (com negação)</text>

  <!-- TABELA VERDADE -->
  <rect x="270" y="30" width="190" height="110" rx="6" fill="#111827" stroke="#1e2d40" stroke-width="1"/>
  <rect x="270" y="30" width="190" height="28" rx="6" fill="#0f172a"/>
  <rect x="270" y="50" width="190" height="8" fill="#0f172a"/>
  <text x="305" y="49" fill="#7c3aed" font-size="11" text-anchor="middle" font-weight="600">A</text>
  <text x="365" y="49" fill="#7c3aed" font-size="11" text-anchor="middle" font-weight="600">B</text>
  <text x="430" y="49" fill="#7c3aed" font-size="11" text-anchor="middle" font-weight="600">S = (A+B)̄</text>
  <line x1="270" y1="58" x2="460" y2="58" stroke="#1e2d40" stroke-width="1"/>
  <line x1="270" y1="78" x2="460" y2="78" stroke="#1e2d40" stroke-width="1"/>
  <line x1="270" y1="98" x2="460" y2="98" stroke="#1e2d40" stroke-width="1"/>
  <line x1="270" y1="118" x2="460" y2="118" stroke="#1e2d40" stroke-width="1"/>
  <line x1="335" y1="30" x2="335" y2="140" stroke="#1e2d40" stroke-width="1"/>
  <line x1="395" y1="30" x2="395" y2="140" stroke="#1e2d40" stroke-width="1"/>

  <text x="305" y="73" fill="#64748b" font-size="12" text-anchor="middle">0</text>
  <text x="365" y="73" fill="#64748b" font-size="12" text-anchor="middle">0</text>
  <text x="430" y="73" fill="#7c3aed" font-size="12" text-anchor="middle">1</text>

  <text x="305" y="93" fill="#64748b" font-size="12" text-anchor="middle">0</text>
  <text x="365" y="93" fill="#64748b" font-size="12" text-anchor="middle">1</text>
  <text x="430" y="93" fill="#64748b" font-size="12" text-anchor="middle">0</text>

  <text x="305" y="113" fill="#64748b" font-size="12" text-anchor="middle">1</text>
  <text x="365" y="113" fill="#64748b" font-size="12" text-anchor="middle">0</text>
  <text x="430" y="113" fill="#64748b" font-size="12" text-anchor="middle">0</text>

  <text x="305" y="133" fill="#64748b" font-size="12" text-anchor="middle">1</text>
  <text x="365" y="133" fill="#64748b" font-size="12" text-anchor="middle">1</text>
  <text x="430" y="133" fill="#64748b" font-size="12" text-anchor="middle">0</text>
</svg>
