<svg viewBox="0 0 480 160" xmlns="http://www.w3.org/2000/svg" font-family="IBM Plex Mono, monospace" font-size="12">
  <rect width="480" height="160" fill="#0a0e17" rx="8"/>

  <!-- SÍMBOLO PORTA AND — geometria extraída do EasyEDA, normalizada -->
  <!-- A porta original: x=355..405, y=-480..-450 → transladada e escalada para viewBox -->
  <!-- translate: x-355+40=−315+40, y: espelhar e transladar -->
  <!-- Escala 3x: corpo 30x30 → 90x90, centrado em (130, 80) -->

  <g transform="translate(40, 125) scale(3, -3)">
    <!-- corpo AND: retângulo + arco semicircular (EasyEDA) -->
    <polyline points="0,30 0,0"        stroke="#00c2ff" stroke-width="0.7" fill="none" stroke-linecap="round"/>
    <polyline points="0,0  25,0"       stroke="#00c2ff" stroke-width="0.7" fill="none" stroke-linecap="round"/>
    <polyline points="0,30 25,30"      stroke="#00c2ff" stroke-width="0.7" fill="none" stroke-linecap="round"/>
    <path d="M 25,0 A 15,15 0 0,1 25,30" stroke="#00c2ff" stroke-width="0.7" fill="none"/>
    <!-- pino entrada A -->
    <line x1="-10" y1="22" x2="0" y2="22" stroke="#00c2ff" stroke-width="0.7"/>
    <!-- pino entrada B -->
    <line x1="-10" y1="8"  x2="0" y2="8"  stroke="#00c2ff" stroke-width="0.7"/>
    <!-- pino saída -->
    <line x1="40"  y1="15" x2="50" y2="15" stroke="#00c2ff" stroke-width="0.7"/>
  </g>

  <!-- labels entradas e saída -->
  <text x="28" y="64"  fill="#e2e8f0" font-size="13" font-style="italic">A</text>
  <text x="28" y="104" fill="#e2e8f0" font-size="13" font-style="italic">B</text>
  <text x="235" y="84" fill="#e2e8f0" font-size="13" font-style="italic">S</text>
  <text x="148" y="148" fill="#64748b" font-size="11" text-anchor="middle">S = A · B</text>

  <!-- TABELA VERDADE -->
  <rect x="270" y="30" width="190" height="110" rx="6" fill="#111827" stroke="#1e2d40" stroke-width="1"/>
  <rect x="270" y="30" width="190" height="28"  rx="6" fill="#0f172a"/>
  <rect x="270" y="50" width="190" height="8"        fill="#0f172a"/>
  <text x="305" y="49" fill="#00c2ff" font-size="11" text-anchor="middle" font-weight="600">A</text>
  <text x="365" y="49" fill="#00c2ff" font-size="11" text-anchor="middle" font-weight="600">B</text>
  <text x="430" y="49" fill="#00c2ff" font-size="11" text-anchor="middle" font-weight="600">S = A·B</text>
  <line x1="270" y1="58"  x2="460" y2="58"  stroke="#1e2d40" stroke-width="1"/>
  <line x1="270" y1="78"  x2="460" y2="78"  stroke="#1e2d40" stroke-width="1"/>
  <line x1="270" y1="98"  x2="460" y2="98"  stroke="#1e2d40" stroke-width="1"/>
  <line x1="270" y1="118" x2="460" y2="118" stroke="#1e2d40" stroke-width="1"/>
  <line x1="335" y1="30"  x2="335" y2="140" stroke="#1e2d40" stroke-width="1"/>
  <line x1="395" y1="30"  x2="395" y2="140" stroke="#1e2d40" stroke-width="1"/>

  <text x="305" y="73"  fill="#64748b" font-size="12" text-anchor="middle">0</text>
  <text x="365" y="73"  fill="#64748b" font-size="12" text-anchor="middle">0</text>
  <text x="430" y="73"  fill="#64748b" font-size="12" text-anchor="middle">0</text>

  <text x="305" y="93"  fill="#64748b" font-size="12" text-anchor="middle">0</text>
  <text x="365" y="93"  fill="#64748b" font-size="12" text-anchor="middle">1</text>
  <text x="430" y="93"  fill="#64748b" font-size="12" text-anchor="middle">0</text>

  <text x="305" y="113" fill="#64748b" font-size="12" text-anchor="middle">1</text>
  <text x="365" y="113" fill="#64748b" font-size="12" text-anchor="middle">0</text>
  <text x="430" y="113" fill="#64748b" font-size="12" text-anchor="middle">0</text>

  <text x="305" y="133" fill="#64748b" font-size="12" text-anchor="middle">1</text>
  <text x="365" y="133" fill="#64748b" font-size="12" text-anchor="middle">1</text>
  <text x="430" y="133" fill="#00c2ff" font-size="12" text-anchor="middle">1</text>
</svg>
