<svg viewBox="0 0 660 280" xmlns="http://www.w3.org/2000/svg" font-family="IBM Plex Mono, monospace" font-size="11">
  <rect width="660" height="280" fill="#0a0e17" rx="8"/>

  <!-- ══════════════════════════════════════════ -->
  <!-- MAPA K — 3 VARIÁVEIS (A, BC)             -->
  <!-- ══════════════════════════════════════════ -->
  <text x="155" y="22" fill="#00c2ff" font-size="11" text-anchor="middle" font-weight="600">Mapa K — 3 variáveis</text>

  <!-- cabeçalho colunas: BC -->
  <text x="95"  y="42" fill="#64748b" font-size="10" text-anchor="middle">BC</text>
  <text x="95"  y="54" fill="#64748b" font-size="9"  text-anchor="middle">A ↓</text>

  <!-- labels colunas BC (código Gray: 00 01 11 10) -->
  <text x="130" y="50" fill="#7c3aed" font-size="10" text-anchor="middle">00</text>
  <text x="170" y="50" fill="#7c3aed" font-size="10" text-anchor="middle">01</text>
  <text x="210" y="50" fill="#7c3aed" font-size="10" text-anchor="middle">11</text>
  <text x="250" y="50" fill="#7c3aed" font-size="10" text-anchor="middle">10</text>

  <!-- labels linhas A -->
  <text x="95" y="85"  fill="#7c3aed" font-size="10" text-anchor="middle">0</text>
  <text x="95" y="125" fill="#7c3aed" font-size="10" text-anchor="middle">1</text>

  <!-- grade 2x4 -->
  <!-- linha 0 -->
  <rect x="108" y="58" width="44" height="38" fill="#111827" stroke="#1e2d40" stroke-width="1"/>
  <rect x="152" y="58" width="44" height="38" fill="#111827" stroke="#1e2d40" stroke-width="1"/>
  <rect x="196" y="58" width="44" height="38" fill="#111827" stroke="#1e2d40" stroke-width="1"/>
  <rect x="240" y="58" width="44" height="38" fill="#111827" stroke="#1e2d40" stroke-width="1"/>
  <!-- linha 1 -->
  <rect x="108" y="96" width="44" height="38" fill="#111827" stroke="#1e2d40" stroke-width="1"/>
  <rect x="152" y="96" width="44" height="38" fill="#111827" stroke="#1e2d40" stroke-width="1"/>
  <rect x="196" y="96" width="44" height="38" fill="#111827" stroke="#1e2d40" stroke-width="1"/>
  <rect x="240" y="96" width="44" height="38" fill="#111827" stroke="#1e2d40" stroke-width="1"/>

  <!-- índices mintermo (canto sup. esq.) -->
  <text x="112" y="70"  fill="#64748b" font-size="8">m0</text>
  <text x="156" y="70"  fill="#64748b" font-size="8">m1</text>
  <text x="200" y="70"  fill="#64748b" font-size="8">m3</text>
  <text x="244" y="70"  fill="#64748b" font-size="8">m2</text>
  <text x="112" y="108" fill="#64748b" font-size="8">m4</text>
  <text x="156" y="108" fill="#64748b" font-size="8">m5</text>
  <text x="200" y="108" fill="#64748b" font-size="8">m7</text>
  <text x="244" y="108" fill="#64748b" font-size="8">m6</text>

  <!-- valores (centro célula) — exemplo genérico com 0/1 -->

  <!-- nota adjacência extremidades -->
  <text x="155" y="152" fill="#64748b" font-size="9" text-anchor="middle">* colunas 00 e 10 são adjacentes</text>

  <!-- ══════════════════════════════════════════ -->
  <!-- MAPA K — 4 VARIÁVEIS (AB, CD)            -->
  <!-- ══════════════════════════════════════════ -->
  <text x="490" y="22" fill="#00c2ff" font-size="11" text-anchor="middle" font-weight="600">Mapa K — 4 variáveis</text>

  <!-- cabeçalho -->
  <text x="360" y="42" fill="#64748b" font-size="10" text-anchor="middle">CD</text>
  <text x="360" y="54" fill="#64748b" font-size="9"  text-anchor="middle">AB ↓</text>

  <!-- labels colunas CD -->
  <text x="400" y="50" fill="#7c3aed" font-size="10" text-anchor="middle">00</text>
  <text x="438" y="50" fill="#7c3aed" font-size="10" text-anchor="middle">01</text>
  <text x="476" y="50" fill="#7c3aed" font-size="10" text-anchor="middle">11</text>
  <text x="514" y="50" fill="#7c3aed" font-size="10" text-anchor="middle">10</text>

  <!-- labels linhas AB (código Gray: 00 01 11 10) -->
  <text x="360" y="82"  fill="#7c3aed" font-size="10" text-anchor="middle">00</text>
  <text x="360" y="120" fill="#7c3aed" font-size="10" text-anchor="middle">01</text>
  <text x="360" y="158" fill="#7c3aed" font-size="10" text-anchor="middle">11</text>
  <text x="360" y="196" fill="#7c3aed" font-size="10" text-anchor="middle">10</text>

  <!-- grade 4x4 -->
  <rect x="378" y="58"  width="38" height="38" fill="#111827" stroke="#1e2d40" stroke-width="1"/>
  <rect x="416" y="58"  width="38" height="38" fill="#111827" stroke="#1e2d40" stroke-width="1"/>
  <rect x="454" y="58"  width="38" height="38" fill="#111827" stroke="#1e2d40" stroke-width="1"/>
  <rect x="492" y="58"  width="38" height="38" fill="#111827" stroke="#1e2d40" stroke-width="1"/>

  <rect x="378" y="96"  width="38" height="38" fill="#111827" stroke="#1e2d40" stroke-width="1"/>
  <rect x="416" y="96"  width="38" height="38" fill="#111827" stroke="#1e2d40" stroke-width="1"/>
  <rect x="454" y="96"  width="38" height="38" fill="#111827" stroke="#1e2d40" stroke-width="1"/>
  <rect x="492" y="96"  width="38" height="38" fill="#111827" stroke="#1e2d40" stroke-width="1"/>

  <rect x="378" y="134" width="38" height="38" fill="#111827" stroke="#1e2d40" stroke-width="1"/>
  <rect x="416" y="134" width="38" height="38" fill="#111827" stroke="#1e2d40" stroke-width="1"/>
  <rect x="454" y="134" width="38" height="38" fill="#111827" stroke="#1e2d40" stroke-width="1"/>
  <rect x="492" y="134" width="38" height="38" fill="#111827" stroke="#1e2d40" stroke-width="1"/>

  <rect x="378" y="172" width="38" height="38" fill="#111827" stroke="#1e2d40" stroke-width="1"/>
  <rect x="416" y="172" width="38" height="38" fill="#111827" stroke="#1e2d40" stroke-width="1"/>
  <rect x="454" y="172" width="38" height="38" fill="#111827" stroke="#1e2d40" stroke-width="1"/>
  <rect x="492" y="172" width="38" height="38" fill="#111827" stroke="#1e2d40" stroke-width="1"/>

  <!-- índices mintermo -->
  <!-- linha 00 -->
  <text x="381" y="68"  fill="#64748b" font-size="7">m0</text>
  <text x="419" y="68"  fill="#64748b" font-size="7">m1</text>
  <text x="457" y="68"  fill="#64748b" font-size="7">m3</text>
  <text x="495" y="68"  fill="#64748b" font-size="7">m2</text>
  <!-- linha 01 -->
  <text x="381" y="106" fill="#64748b" font-size="7">m4</text>
  <text x="419" y="106" fill="#64748b" font-size="7">m5</text>
  <text x="457" y="106" fill="#64748b" font-size="7">m7</text>
  <text x="495" y="106" fill="#64748b" font-size="7">m6</text>
  <!-- linha 11 -->
  <text x="381" y="144" fill="#64748b" font-size="7">m12</text>
  <text x="419" y="144" fill="#64748b" font-size="7">m13</text>
  <text x="457" y="144" fill="#64748b" font-size="7">m15</text>
  <text x="495" y="144" fill="#64748b" font-size="7">m14</text>
  <!-- linha 10 -->
  <text x="381" y="182" fill="#64748b" font-size="7">m8</text>
  <text x="419" y="182" fill="#64748b" font-size="7">m9</text>
  <text x="457" y="182" fill="#64748b" font-size="7">m11</text>
  <text x="495" y="182" fill="#64748b" font-size="7">m10</text>

  <!-- valores -->
  <!-- linha 00 -->
  <!-- linha 01 -->
  <!-- linha 11 -->
  <!-- linha 10 -->

  <!-- nota adjacência -->
  <text x="435" y="225" fill="#64748b" font-size="9" text-anchor="middle">* linhas 00↔10 e colunas 00↔10 são adjacentes</text>

  <!-- legenda geral -->
  <rect x="20" y="165" width="290" height="100" rx="6" fill="#111827" stroke="#1e2d40" stroke-width="1"/>
  <text x="165" y="182" fill="#00c2ff" font-size="10" text-anchor="middle" font-weight="600">Como preencher o Mapa K</text>
  <text x="30"  y="198" fill="#64748b" font-size="9">1. Identificar os mintermos da forma canônica.</text>
  <text x="30"  y="213" fill="#64748b" font-size="9">2. Preencher com 1 as células dos mintermos.</text>
  <text x="30"  y="228" fill="#64748b" font-size="9">3. Preencher com 0 as demais células.</text>
  <text x="30"  y="243" fill="#64748b" font-size="9">4. Usar X (don't care) quando a saída não importa.</text>
  <text x="30"  y="258" fill="#64748b" font-size="9">5. Agrupar 1s em pares, quartetos ou octetos.</text>
</svg>
