<svg viewBox="0 0 700 240" xmlns="http://www.w3.org/2000/svg" font-family="IBM Plex Mono, monospace" font-size="10">
  <rect width="700" height="240" fill="#0a0e17" rx="8"/>
  <text x="350" y="18" fill="#00c2ff" font-size="11" text-anchor="middle" font-weight="600">Somador modular de n bits</text>

  <!-- ═══════════════════════════════════════════════════ -->
  <!-- ORDEM: MS (direita) → SC2 → SC1 → carry out (esq) -->
  <!-- ═══════════════════════════════════════════════════ -->

  <!-- ── MEIO-SOMADOR (bit 0, mais à direita) ── -->
  <rect x="510" y="70" width="110" height="80" rx="5" fill="#111827" stroke="#00c2ff" stroke-width="1.5"/>
  <text x="565" y="107" fill="#00c2ff" font-size="9" text-anchor="middle" font-weight="600">MEIO</text>
  <text x="565" y="120" fill="#00c2ff" font-size="9" text-anchor="middle" font-weight="600">SOMADOR</text>

  <!-- entradas A0, B0 abaixo -->
  <line x1="540" y1="150" x2="540" y2="165" stroke="#00c2ff" stroke-width="1.2"/>
  <line x1="590" y1="150" x2="590" y2="165" stroke="#00c2ff" stroke-width="1.2"/>
  <text x="540" y="178" fill="#64748b" font-size="9" text-anchor="middle">A0</text>
  <text x="590" y="178" fill="#64748b" font-size="9" text-anchor="middle">B0</text>

  <!-- saída S0 acima -->
  <line x1="565" y1="55" x2="565" y2="70" stroke="#00c2ff" stroke-width="1.2"/>
  <text x="565" y="50" fill="#64748b" font-size="9" text-anchor="middle">S0</text>

  <!-- Cout MS → Cin SC1 (carry passa para esquerda) -->
  <line x1="510" y1="110" x2="480" y2="110" stroke="#7c3aed" stroke-width="1.2" stroke-dasharray="4,2"/>
  <text x="490" y="106" fill="#7c3aed" font-size="8">Cout</text>

  <!-- ── SOMADOR COMPLETO 1 (bit 1) ── -->
  <rect x="300" y="60" width="120" height="100" rx="5" fill="#111827" stroke="#00c2ff" stroke-width="1.5"/>
  <text x="360" y="103" fill="#00c2ff" font-size="9" text-anchor="middle" font-weight="600">SOMADOR</text>
  <text x="360" y="116" fill="#00c2ff" font-size="9" text-anchor="middle" font-weight="600">COMPLETO</text>
  <text x="360" y="129" fill="#64748b" font-size="8" text-anchor="middle">(bit 1)</text>

  <!-- entradas A1, B1 abaixo -->
  <line x1="330" y1="160" x2="330" y2="175" stroke="#00c2ff" stroke-width="1.2"/>
  <line x1="390" y1="160" x2="390" y2="175" stroke="#00c2ff" stroke-width="1.2"/>
  <text x="330" y="188" fill="#64748b" font-size="9" text-anchor="middle">A1</text>
  <text x="390" y="188" fill="#64748b" font-size="9" text-anchor="middle">B1</text>

  <!-- Cin SC1 (vindo do MS) -->
  <line x1="480" y1="110" x2="420" y2="110" stroke="#7c3aed" stroke-width="1.2" stroke-dasharray="4,2"/>
  <text x="440" y="106" fill="#7c3aed" font-size="8">Cin</text>

  <!-- saída S1 acima -->
  <line x1="360" y1="45" x2="360" y2="60" stroke="#00c2ff" stroke-width="1.2"/>
  <text x="360" y="40" fill="#64748b" font-size="9" text-anchor="middle">S1</text>

  <!-- Cout SC1 → Cin SC2 -->
  <line x1="300" y1="110" x2="270" y2="110" stroke="#7c3aed" stroke-width="1.2" stroke-dasharray="4,2"/>
  <text x="278" y="106" fill="#7c3aed" font-size="8">Cout</text>

  <!-- ── SOMADOR COMPLETO 2 (bit 2) ── -->
  <rect x="100" y="60" width="120" height="100" rx="5" fill="#111827" stroke="#00c2ff" stroke-width="1.5"/>
  <text x="160" y="103" fill="#00c2ff" font-size="9" text-anchor="middle" font-weight="600">SOMADOR</text>
  <text x="160" y="116" fill="#00c2ff" font-size="9" text-anchor="middle" font-weight="600">COMPLETO</text>
  <text x="160" y="129" fill="#64748b" font-size="8" text-anchor="middle">(bit 2)</text>

  <!-- entradas A2, B2 abaixo -->
  <line x1="130" y1="160" x2="130" y2="175" stroke="#00c2ff" stroke-width="1.2"/>
  <line x1="190" y1="160" x2="190" y2="175" stroke="#00c2ff" stroke-width="1.2"/>
  <text x="130" y="188" fill="#64748b" font-size="9" text-anchor="middle">A2</text>
  <text x="190" y="188" fill="#64748b" font-size="9" text-anchor="middle">B2</text>

  <!-- Cin SC2 (vindo do SC1) -->
  <line x1="270" y1="110" x2="220" y2="110" stroke="#7c3aed" stroke-width="1.2" stroke-dasharray="4,2"/>
  <text x="232" y="106" fill="#7c3aed" font-size="8">Cin</text>

  <!-- saída S2 acima -->
  <line x1="160" y1="45" x2="160" y2="60" stroke="#00c2ff" stroke-width="1.2"/>
  <text x="160" y="40" fill="#64748b" font-size="9" text-anchor="middle">S2</text>

  <!-- Cout SC2 → reticências -->
  <line x1="100" y1="110" x2="70" y2="110" stroke="#7c3aed" stroke-width="1.2" stroke-dasharray="4,2"/>
  <text x="72" y="106" fill="#7c3aed" font-size="8">Cout</text>

  <!-- reticências -->
  <text x="50" y="115" fill="#64748b" font-size="14">···</text>

  <!-- carry final = MSB saindo à esquerda -->
  <line x1="30" y1="110" x2="10" y2="110" stroke="#7c3aed" stroke-width="1.5" stroke-dasharray="4,2"/>
  <text x="8" y="100" fill="#7c3aed" font-size="8" text-anchor="middle">Cn</text>
  <text x="8" y="125" fill="#7c3aed" font-size="8" text-anchor="middle">MSB</text>

  <!-- legenda carry -->
  <rect x="220" y="198" width="260" height="34" rx="4" fill="#111827" stroke="#1e2d40" stroke-width="1"/>
  <line x1="230" y1="210" x2="265" y2="210" stroke="#7c3aed" stroke-width="1.2" stroke-dasharray="4,2"/>
  <text x="270" y="214" fill="#64748b" font-size="9">carry (Cin / Cout)</text>
  <line x1="230" y1="225" x2="265" y2="225" stroke="#00c2ff" stroke-width="1.2"/>
  <text x="270" y="229" fill="#64748b" font-size="9">soma / entradas</text>

  <text x="350" y="235" fill="#64748b" font-size="8" text-anchor="middle"></text>
</svg>
